# This file uses centimeters as units for non-parametric coordinates.

v -0.000000 -0.497622 0.187618
v -0.040529 0.085798 -0.022064
v 0.040531 0.085798 -0.022064
v 0.000000 0.072305 -0.059782
v -0.135708 0.348775 -0.115629
v 0.135706 0.348775 -0.115629
v 0.099346 0.315312 -0.209179
v 0.000000 0.303067 -0.243416
v -0.099344 0.315312 -0.209179
v -0.135748 0.285917 -0.093037
v 0.135746 0.285917 -0.093037
v 0.099375 0.252411 -0.186708
v 0.000000 0.240157 -0.220959
v -0.099375 0.252409 -0.186712
v -0.102617 0.348775 -0.115629
v 0.102619 0.348775 -0.115629
v 0.075121 0.323471 -0.186357
v 0.000000 0.314211 -0.212261
v -0.075121 0.323469 -0.186375
v -0.106441 0.285917 -0.093037
v 0.106440 0.285917 -0.093037
v 0.077921 0.259638 -0.166506
v 0.000000 0.250028 -0.193357
v -0.077919 0.259632 -0.166506
v -0.107952 0.196764 -0.061396
v 0.000000 0.121101 -0.034203
v 0.107954 0.196764 -0.061396
v 0.079031 0.170194 -0.135689
v 0.000000 0.160446 -0.162926
v -0.079029 0.170189 -0.135687
v -0.072704 0.080494 -0.019608
v 0.072702 0.080498 -0.019609
v 0.053226 0.062549 -0.069778
v 0.000000 0.055990 -0.088120
v -0.053226 0.062549 -0.069778
v -0.037714 -0.205911 0.082777
v 0.037712 -0.205911 0.082777
v -0.000000 -0.218610 0.047276
v 0.099346 0.382519 -0.022181
v 0.000000 0.394871 0.012018
v -0.099344 0.382519 -0.022181
v 0.099375 0.319705 0.000530
v 0.000000 0.332057 0.034746
v -0.099375 0.319705 0.000534
v 0.075121 0.374284 -0.044973
v 0.000000 0.383634 -0.019100
v -0.075121 0.374292 -0.044962
v 0.077921 0.312417 -0.019650
v 0.000000 0.322101 0.007177
v -0.077919 0.312414 -0.019646
v 0.079031 0.223566 0.012814
v 0.000000 0.233387 0.040024
v -0.079029 0.223561 0.012815
v 0.053226 0.098592 0.030508
v 0.000000 0.105209 0.048828
v -0.053226 0.098592 0.030508
v 0.000000 0.099403 0.015615
v -0.000000 -0.193106 0.118240
v 0.079994 -0.000519 -0.075140
v 0.112064 0.283911 -0.182314
v 0.084639 0.274653 -0.208130
v 0.137012 0.263300 -0.201439
v 0.109596 0.254047 -0.227243
v 0.083876 0.440999 -0.237947
v 0.156456 0.271946 -0.254314
v 0.082775 0.174032 -0.122780
v 0.065689 0.168262 -0.138868
v 0.085995 0.164227 -0.158993
v 0.103085 0.169993 -0.142906
v 0.113758 0.122738 -0.155315
v 0.079659 0.053479 0.075106
v 0.084318 0.350330 0.002495
v 0.111744 0.341074 -0.023321
v 0.109287 0.346603 0.030346
v 0.136700 0.337350 0.004538
v 0.083542 0.497622 -0.080395
v 0.156122 0.377666 0.039843
v 0.065456 0.224167 0.016716
v 0.082548 0.218399 0.000633
v 0.102850 0.228097 0.018723
v 0.085762 0.233866 0.034811
v 0.113422 0.199575 0.058475
v -0.079994 0.053366 0.074791
v -0.112064 0.340946 -0.023617
v -0.084641 0.350242 0.002186
v -0.137011 0.337227 0.004253
v -0.109596 0.346517 0.030043
v -0.083874 0.497510 -0.080709
v -0.156456 0.377554 0.039530
v -0.082775 0.218310 0.000420
v -0.065689 0.224102 0.016500
v -0.085997 0.233797 0.034582
v -0.103083 0.228005 0.018505
v -0.113758 0.199463 0.058165
v -0.079659 -0.000632 -0.075455
v -0.084318 0.274526 -0.208426
v -0.111744 0.283821 -0.182623
v -0.109287 0.253922 -0.227530
v -0.136703 0.263213 -0.201738
v -0.083542 0.440886 -0.238260
v -0.156124 0.271832 -0.254631
v -0.065456 0.168175 -0.139078
v -0.082546 0.173965 -0.123003
v -0.102848 0.169927 -0.143131
v -0.085758 0.164136 -0.159204
v -0.113426 0.122624 -0.155634
v 0.080112 -0.154463 0.254631
v 0.140499 0.310619 0.254631
v -0.145861 0.310619 0.254631
v -0.085474 -0.154463 0.254631
v -0.115730 0.295811 0.186501
v 0.110367 0.295811 0.186501
v 0.062687 -0.130923 0.186501
v -0.068050 -0.130923 0.186501
v -0.039026 0.161250 0.232693
v -0.002684 0.197593 0.232811
v 0.033661 0.161250 0.232693
v -0.002684 0.124907 0.232574
v -0.039026 0.161957 -0.000908
v -0.002684 0.198300 0.024340
v 0.033661 0.161957 -0.000908
v -0.002684 0.125614 -0.001020
vt 0.868423 0.877804
vt 0.811651 0.878402
vt 0.811651 0.865707
vt 0.868423 0.866141
vt 0.977815 0.598981
vt 0.977815 0.582822
vt 0.990183 0.582822
vt 0.990183 0.598981
vt 0.977815 0.617382
vt 0.990183 0.617382
vt 0.977815 0.635783
vt 0.990183 0.635783
vt 0.977816 0.651943
vt 0.990183 0.651943
vt 0.972271 0.598981
vt 0.972271 0.582822
vt 0.972271 0.617382
vt 0.972271 0.635783
vt 0.972271 0.651943
vt 0.995055 0.582822
vt 0.868423 0.887477
vt 0.811651 0.888708
vt 0.937907 0.875216
vt 0.980605 0.658220
vt 0.998512 0.685832
vt 0.980605 0.671639
vt 0.980605 0.713442
vt 0.980605 0.700024
vt 0.980605 0.685832
vt 0.953770 0.700024
vt 0.953770 0.713442
vt 0.953770 0.685832
vt 0.953770 0.671639
vt 0.953770 0.658220
vt 0.958566 0.651943
vt 0.972271 0.651943
vt 0.958565 0.635783
vt 0.972271 0.635783
vt 0.958565 0.617383
vt 0.972271 0.617382
vt 0.958566 0.582822
vt 0.958566 0.598981
vt 0.995055 0.651943
vt 0.972271 0.598981
vt 0.995055 0.635783
vt 0.995055 0.617382
vt 0.995055 0.598981
vt 0.972271 0.582822
vt 0.963176 0.710574
vt 0.963176 0.694271
vt 0.966158 0.702422
vt 0.955024 0.691289
vt 0.955026 0.713557
vt 0.977815 0.598981
vt 0.990183 0.598981
vt 0.990183 0.582822
vt 0.977815 0.582822
vt 0.977815 0.617382
vt 0.990183 0.617382
vt 0.977815 0.635783
vt 0.990183 0.635783
vt 0.977816 0.651943
vt 0.990183 0.651943
vt 0.972271 0.582822
vt 0.972271 0.598981
vt 0.972271 0.617382
vt 0.972271 0.635783
vt 0.972271 0.651943
vt 0.972271 0.582822
vt 0.958566 0.582822
vt 0.958566 0.598981
vt 0.972271 0.598981
vt 0.958565 0.617383
vt 0.972271 0.617382
vt 0.958565 0.635783
vt 0.972271 0.635783
vt 0.958566 0.651943
vt 0.972271 0.651943
vt 0.995055 0.582822
vt 0.995055 0.598981
vt 0.995055 0.617382
vt 0.995055 0.635783
vt 0.995055 0.651943
vt 0.980605 0.658220
vt 0.980605 0.671639
vt 0.998512 0.685832
vt 0.980605 0.700024
vt 0.980605 0.713442
vt 0.980605 0.685832
vt 0.953770 0.700024
vt 0.953770 0.713442
vt 0.953770 0.685832
vt 0.953770 0.671639
vt 0.953770 0.658220
vt 0.963176 0.710574
vt 0.966158 0.702422
vt 0.963176 0.694271
vt 0.955024 0.691289
vt 0.955026 0.713557
vt 0.868423 0.877804
vt 0.868423 0.866141
vt 0.811651 0.865707
vt 0.811651 0.878402
vt 0.811651 0.888708
vt 0.868423 0.887477
vt 0.937907 0.875216
vt 0.993420 0.520148
vt 0.987586 0.520148
vt 0.991121 0.512690
vt 0.973858 0.520148
vt 0.980785 0.486191
vt 0.980785 0.520148
vt 0.973858 0.542466
vt 0.980785 0.542466
vt 0.980785 0.573322
vt 0.987586 0.540072
vt 0.993794 0.538688
vt 0.996265 0.544890
vt 0.987586 0.520148
vt 0.991121 0.512690
vt 0.980785 0.486191
vt 0.980785 0.520148
vt 0.980785 0.573322
vt 0.987586 0.540072
vt 0.980785 0.542466
vt 0.996265 0.544890
vt 0.993420 0.520148
vt 0.987586 0.520148
vt 0.991121 0.512690
vt 0.973858 0.520148
vt 0.980785 0.486191
vt 0.980785 0.520148
vt 0.973858 0.542466
vt 0.980785 0.542466
vt 0.980785 0.573322
vt 0.987586 0.540072
vt 0.993794 0.538688
vt 0.996265 0.544890
vt 0.987586 0.520148
vt 0.991121 0.512690
vt 0.980785 0.486191
vt 0.980785 0.520148
vt 0.980785 0.573322
vt 0.987586 0.540072
vt 0.980785 0.542466
vt 0.996265 0.544890
vt 0.993420 0.520148
vt 0.987586 0.520148
vt 0.991121 0.512690
vt 0.973858 0.520148
vt 0.980785 0.486191
vt 0.980785 0.520148
vt 0.973858 0.542466
vt 0.980785 0.542466
vt 0.980785 0.573322
vt 0.987586 0.540072
vt 0.993794 0.538688
vt 0.996265 0.544890
vt 0.987586 0.520148
vt 0.991121 0.512690
vt 0.980785 0.486191
vt 0.980785 0.520148
vt 0.980785 0.573322
vt 0.987586 0.540072
vt 0.980785 0.542466
vt 0.996265 0.544890
vt 0.993420 0.520148
vt 0.987586 0.520148
vt 0.991121 0.512690
vt 0.973858 0.520148
vt 0.980785 0.486191
vt 0.980785 0.520148
vt 0.973858 0.542466
vt 0.980785 0.542466
vt 0.980785 0.573322
vt 0.987586 0.540072
vt 0.993794 0.538688
vt 0.996265 0.544890
vt 0.987586 0.520148
vt 0.991121 0.512690
vt 0.980785 0.486191
vt 0.980785 0.520148
vt 0.980785 0.573322
vt 0.987586 0.540072
vt 0.980785 0.542466
vt 0.996265 0.544890
vt 0.927260 0.574509
vt 0.887489 0.574509
vt 0.895876 0.499445
vt 0.918873 0.499445
vt 0.873746 0.584525
vt 0.883791 0.489272
vt 0.930957 0.489272
vt 0.941003 0.584525
vt 0.956870 0.666282
vt 0.956870 0.701436
vt 0.968345 0.666298
vt 0.968345 0.701454
vt 0.968345 0.701454
vt 0.980043 0.701472
vt 0.980043 0.670098
vt 0.968345 0.666298
vn 0.705203 -0.282431 -0.650324
vn 0.704911 -0.245443 -0.665476
vn 0.704911 -0.245443 -0.665476
vn 0.705203 -0.282431 -0.650324
vn -0.705194 -0.282433 -0.650333
vn -0.705194 -0.282433 -0.650333
vn -0.704911 -0.245439 -0.665478
vn -0.704911 -0.245439 -0.665478
vn 0.707184 -0.237681 -0.665882
vn 1.000000 0.000814 -0.000290
vn 1.000000 0.000814 -0.000290
vn 0.707184 -0.237681 -0.665882
vn 0.000008 -0.336211 -0.941787
vn 0.000008 -0.336211 -0.941787
vn -0.707172 -0.237654 -0.665904
vn -0.707172 -0.237654 -0.665904
vn -1.000000 0.000838 -0.000298
vn -1.000000 0.000838 -0.000298
vn -0.000074 0.941069 -0.338216
vn -0.000033 0.941590 -0.336761
vn -0.000033 0.941590 -0.336761
vn -0.000074 0.941069 -0.338216
vn -0.000001 0.941592 -0.336756
vn -0.000001 0.941592 -0.336756
vn -0.000003 0.941578 -0.336794
vn -0.000003 0.941578 -0.336794
vn 0.000003 0.941069 -0.338216
vn 0.000003 0.941069 -0.338216
vn -0.998350 -0.054042 0.019421
vn -0.705977 0.182122 0.684418
vn -0.705977 0.182122 0.684418
vn -0.998350 -0.054042 0.019421
vn -0.000051 0.282478 0.959274
vn -0.000051 0.282478 0.959274
vn 0.705953 0.182204 0.684421
vn 0.705953 0.182204 0.684421
vn 0.998351 -0.054019 0.019410
vn 0.998351 -0.054019 0.019410
vn 0.000004 -0.941066 0.338223
vn 0.000020 -0.941579 0.336794
vn 0.000020 -0.941579 0.336794
vn 0.000004 -0.941066 0.338223
vn -0.000001 -0.941597 0.336741
vn -0.000001 -0.941597 0.336741
vn -0.000068 -0.941595 0.336748
vn -0.000068 -0.941595 0.336748
vn -0.000080 -0.941068 0.338218
vn -0.000080 -0.941068 0.338218
vn 0.597319 0.754739 -0.271257
vn -0.000010 0.941066 -0.338224
vn 0.412832 0.903453 0.115511
vn -0.597312 0.754743 -0.271259
vn -0.412843 0.903445 0.115531
vn -0.000022 0.956325 0.292305
vn 0.678065 -0.495254 -0.543094
vn 0.678065 -0.495254 -0.543094
vn 0.961693 -0.257973 0.092717
vn 0.961693 -0.257973 0.092717
vn 0.000002 -0.582220 -0.813031
vn 0.000002 -0.582220 -0.813031
vn -0.678063 -0.495247 -0.543103
vn -0.678063 -0.495247 -0.543103
vn -0.961698 -0.257956 0.092711
vn -0.961698 -0.257956 0.092711
vn 0.704369 -0.318967 -0.634132
vn -0.704351 -0.318975 -0.634148
vn 0.000008 -0.941589 0.336764
vn 0.000008 -0.941589 0.336764
vn -0.000000 -0.941611 0.336702
vn 0.000017 -0.941067 0.338221
vn 0.000017 -0.941067 0.338221
vn 0.707184 0.240581 0.664840
vn 0.707184 0.240581 0.664840
vn 0.000006 0.340218 0.940346
vn 0.000006 0.340218 0.940346
vn -0.707172 0.240612 0.664841
vn -0.707172 0.240612 0.664841
vn -0.000027 0.940543 -0.339675
vn -0.000027 0.940543 -0.339675
vn -0.000001 0.940540 -0.339683
vn -0.000001 0.940540 -0.339683
vn -0.000010 0.940555 -0.339641
vn -0.000010 0.940555 -0.339641
vn -0.705983 -0.295221 -0.643765
vn -0.705983 -0.295221 -0.643765
vn -0.000044 -0.392798 -0.919625
vn -0.000044 -0.392798 -0.919625
vn 0.705961 -0.295178 -0.643808
vn 0.705961 -0.295178 -0.643808
vn 0.000031 -0.940552 0.339650
vn 0.000031 -0.940552 0.339650
vn 0.000005 -0.940539 0.339684
vn 0.000005 -0.940539 0.339684
vn -0.000055 -0.940544 0.339673
vn -0.000055 -0.940544 0.339673
vn 0.412829 0.623221 -0.664205
vn -0.412841 0.623201 -0.664216
vn -0.000023 0.551452 -0.834207
vn 0.678066 -0.036219 0.734108
vn 0.678066 -0.036219 0.734108
vn 0.000003 0.068551 0.997648
vn 0.000003 0.068551 0.997648
vn -0.678062 -0.036208 0.734112
vn -0.678062 -0.036208 0.734112
vn 0.000008 -0.940543 0.339675
vn -0.000000 -0.940522 0.339733
vn 0.000008 -0.940543 0.339675
vn 0.705207 0.196165 0.681324
vn 0.705207 0.196165 0.681324
vn 0.704919 0.234336 0.669460
vn 0.704919 0.234336 0.669460
vn -0.705198 0.196169 0.681332
vn -0.704919 0.234340 0.669459
vn -0.704919 0.234340 0.669459
vn -0.705198 0.196169 0.681332
vn 0.704369 0.157681 0.692099
vn -0.704351 0.157685 0.692116
vn 0.586853 0.327058 -0.740700
vn 0.586853 0.327058 -0.740700
vn 0.586853 0.327058 -0.740700
vn -0.706534 0.196784 0.679769
vn -0.706534 0.196784 0.679769
vn -0.706534 0.196784 0.679769
vn 0.755744 0.152749 0.636804
vn 0.755744 0.152749 0.636804
vn 0.806872 0.120564 0.578292
vn 0.806872 0.120564 0.578292
vn -0.701867 0.122558 0.701685
vn -0.701867 0.122558 0.701685
vn -0.701867 0.122558 0.701685
vn 0.342781 -0.939013 -0.027495
vn 0.342781 -0.939013 -0.027495
vn 0.342781 -0.939013 -0.027495
vn 0.805472 0.340511 0.485043
vn 0.719268 0.263209 0.642942
vn 0.776672 0.290550 0.558892
vn 0.865135 0.335324 0.372961
vn -0.681643 0.480602 0.551711
vn -0.681643 0.480602 0.551711
vn -0.681643 0.480602 0.551711
vn -0.681643 0.480602 0.551711
vn 0.661370 -0.556178 -0.503246
vn 0.661370 -0.556178 -0.503246
vn 0.661370 -0.556178 -0.503246
vn 0.661370 -0.556178 -0.503246
vn -0.650211 -0.323203 -0.687580
vn -0.583377 -0.351444 -0.732228
vn -0.583377 -0.351444 -0.732228
vn -0.650211 -0.323203 -0.687580
vn -0.571551 -0.125066 -0.810980
vn -0.624168 -0.182813 -0.759602
vn -0.694193 -0.214248 -0.687163
vn -0.463918 -0.114124 -0.878496
vn 0.586494 0.723868 0.363373
vn 0.586494 0.723868 0.363373
vn 0.586494 0.723868 0.363373
vn -0.706260 -0.281043 -0.649778
vn -0.706260 -0.281043 -0.649778
vn -0.706260 -0.281043 -0.649778
vn -0.650934 0.188201 0.735435
vn -0.650934 0.188201 0.735435
vn -0.584972 0.195617 0.787109
vn -0.584972 0.195617 0.787109
vn -0.701773 -0.352189 -0.619256
vn -0.701773 -0.352189 -0.619256
vn -0.701773 -0.352189 -0.619256
vn 0.343486 -0.706914 0.618296
vn 0.343486 -0.706914 0.618296
vn 0.343486 -0.706914 0.618296
vn -0.571636 0.419595 0.705105
vn -0.694087 0.271722 0.666641
vn -0.624234 0.342106 0.702350
vn -0.464392 0.470862 0.750086
vn -0.681742 0.019466 -0.731333
vn -0.681742 0.019466 -0.731333
vn -0.681742 0.019466 -0.731333
vn -0.681742 0.019466 -0.731333
vn 0.661726 -0.108705 0.741823
vn 0.661726 -0.108705 0.741823
vn 0.661726 -0.108705 0.741823
vn 0.661726 -0.108705 0.741823
vn 0.756368 -0.287301 -0.587679
vn 0.807934 -0.275501 -0.520905
vn 0.807934 -0.275501 -0.520905
vn 0.756368 -0.287301 -0.587679
vn 0.805488 -0.045938 -0.590830
vn 0.776668 -0.131229 -0.616090
vn 0.719134 -0.205807 -0.663694
vn 0.865319 0.021640 -0.500754
vn -0.586852 0.723795 0.362940
vn -0.586852 0.723795 0.362940
vn -0.586852 0.723795 0.362940
vn 0.706539 -0.280946 -0.649517
vn 0.706539 -0.280946 -0.649517
vn 0.706539 -0.280946 -0.649517
vn -0.755735 -0.287574 -0.588360
vn -0.755735 -0.287574 -0.588360
vn -0.806873 -0.275149 -0.522732
vn -0.806873 -0.275149 -0.522732
vn 0.701897 -0.352156 -0.619134
vn 0.701897 -0.352156 -0.619134
vn 0.701897 -0.352156 -0.619134
vn -0.342771 -0.706701 0.618936
vn -0.342771 -0.706701 0.618936
vn -0.342771 -0.706701 0.618936
vn -0.805484 -0.046147 -0.590817
vn -0.719277 -0.206276 -0.663393
vn -0.776675 -0.131692 -0.615981
vn -0.865130 0.021183 -0.501101
vn 0.681663 0.019430 -0.731408
vn 0.681663 0.019430 -0.731408
vn 0.681663 0.019430 -0.731408
vn 0.681663 0.019430 -0.731408
vn -0.661398 -0.108601 0.742131
vn -0.661398 -0.108601 0.742131
vn -0.661398 -0.108601 0.742131
vn -0.661398 -0.108601 0.742131
vn 0.650167 0.188450 0.736050
vn 0.583367 0.195106 0.788427
vn 0.583367 0.195106 0.788427
vn 0.650167 0.188450 0.736050
vn 0.571578 0.419773 0.705046
vn 0.624159 0.342538 0.702207
vn 0.694163 0.272190 0.666371
vn 0.463963 0.471187 0.750148
vn -0.586279 0.327012 -0.741175
vn -0.586279 0.327012 -0.741175
vn -0.586279 0.327012 -0.741175
vn 0.706304 0.196863 0.679985
vn 0.706304 0.196863 0.679985
vn 0.706304 0.196863 0.679985
vn 0.650939 -0.323015 -0.686979
vn 0.650939 -0.323015 -0.686979
vn 0.584994 -0.350179 -0.731544
vn 0.584994 -0.350179 -0.731544
vn 0.701780 0.122580 0.701768
vn 0.701780 0.122580 0.701768
vn 0.701780 0.122580 0.701768
vn -0.343429 -0.938794 -0.026887
vn -0.343429 -0.938794 -0.026887
vn -0.343429 -0.938794 -0.026887
vn 0.571626 -0.125256 -0.810898
vn 0.694059 -0.214816 -0.687122
vn 0.624223 -0.183266 -0.759446
vn 0.464428 -0.114357 -0.878197
vn 0.681761 0.480569 0.551594
vn 0.681761 0.480569 0.551594
vn 0.681761 0.480569 0.551594
vn 0.681761 0.480569 0.551594
vn -0.661597 -0.556130 -0.503001
vn -0.661597 -0.556130 -0.503001
vn -0.661597 -0.556130 -0.503001
vn -0.661597 -0.556130 -0.503001
vn -0.756369 0.152528 0.636114
vn -0.807926 0.119147 0.577113
vn -0.807926 0.119147 0.577113
vn -0.756369 0.152528 0.636114
vn -0.805479 0.340686 0.484909
vn -0.776666 0.290975 0.558680
vn -0.719123 0.263756 0.642880
vn -0.865327 0.335463 0.372389
vn 0.000000 0.000000 -1.000000
vn 0.000000 0.000000 -1.000000
vn 0.000000 0.000000 -1.000000
vn 0.000000 0.000000 -1.000000
vn 0.935774 -0.113393 -0.333871
vn 0.935774 -0.113393 -0.333871
vn 0.935774 -0.113393 -0.333871
vn 0.935774 -0.113393 -0.333871
vn -0.935782 -0.113394 -0.333848
vn -0.935782 -0.113394 -0.333848
vn -0.935782 -0.113394 -0.333848
vn -0.935782 -0.113394 -0.333848
vn 0.000000 0.977186 -0.212385
vn 0.000000 0.977186 -0.212385
vn 0.000000 0.977186 -0.212385
vn 0.000000 0.977186 -0.212385
vn -0.000000 -0.945171 -0.326575
vn -0.000000 -0.945171 -0.326575
vn -0.000000 -0.945171 -0.326575
vn -0.000000 -0.945171 -0.326575
vn -0.707504 0.706705 0.002260
vn -0.707504 0.706705 0.002260
vn -0.707504 0.706705 0.002260
vn -0.707504 0.706705 0.002260
vn 0.707486 0.706724 0.002260
vn 0.707486 0.706724 0.002260
vn 0.707486 0.706724 0.002260
vn 0.707486 0.706724 0.002260
vn 0.707093 -0.707117 -0.002139
vn 0.707093 -0.707117 -0.002139
vn 0.707093 -0.707117 -0.002139
vn 0.707093 -0.707117 -0.002139
vn -0.707111 -0.707099 -0.002139
vn -0.707111 -0.707099 -0.002139
vn -0.707111 -0.707099 -0.002139
vn -0.707111 -0.707099 -0.002139
s 1
f 38/1/1 4/2/2 3/3/3 37/4/4
s 2
f 38/1/5 36/21/6 2/22/7 4/2/8
s 3
f 7/5/9 6/6/10 11/7/11 12/8/12
f 8/9/13 7/5/9 12/8/12 13/10/14
f 9/11/15 8/9/13 13/10/14 14/12/16
f 5/13/17 9/11/15 14/12/16 10/14/18
s 4
f 6/6/19 7/5/20 17/15/21 16/16/22
f 7/5/20 8/9/23 18/17/24 17/15/21
f 8/9/23 9/11/25 19/18/26 18/17/24
f 9/11/25 5/13/27 15/19/28 19/18/26
s 5
f 16/48/29 17/44/30 22/42/31 21/41/32
f 17/44/30 18/40/33 23/39/34 22/42/31
f 18/40/33 19/38/35 24/37/36 23/39/34
f 19/38/35 15/36/37 20/35/38 24/37/36
s 6
f 21/20/39 22/47/40 12/8/41 11/7/42
f 22/47/40 23/46/43 13/10/44 12/8/41
f 23/46/43 24/45/45 14/12/46 13/10/44
f 24/45/45 20/43/47 10/14/48 14/12/46
s 7
f 25/24/49 26/25/50 30/26/51
f 26/25/50 27/27/52 28/28/53
f 26/25/50 29/29/54 30/26/51
s 9
f 33/30/55 28/28/56 27/27/57 32/31/58
f 29/29/59 28/28/56 33/30/55 34/32/60
f 35/33/61 30/26/62 29/29/59 34/32/60
f 35/33/61 31/34/63 25/24/64 30/26/62
s 1
f 1/23/65 38/1/1 37/4/4
s 2
f 1/23/66 36/21/6 38/1/5
s 10
f 33/49/67 35/50/68 34/51/69
f 31/52/70 35/50/68 33/49/67 32/53/71
s 7
f 26/25/50 28/28/53 29/29/54
s 3
f 39/54/72 42/55/73 11/56/11 6/57/10
f 40/58/74 43/59/75 42/55/73 39/54/72
f 41/60/76 44/61/77 43/59/75 40/58/74
f 5/62/17 10/63/18 44/61/77 41/60/76
s 4
f 6/57/19 16/64/22 45/65/78 39/54/79
f 39/54/79 45/65/78 46/66/80 40/58/81
f 40/58/81 46/66/80 47/67/82 41/60/83
f 41/60/83 47/67/82 15/68/28 5/62/27
s 5
f 16/69/29 21/70/32 48/71/84 45/72/85
f 45/72/85 48/71/84 49/73/86 46/74/87
f 46/74/87 49/73/86 50/75/88 47/76/89
f 47/76/89 50/75/88 20/77/38 15/78/37
s 6
f 21/79/39 11/56/42 42/55/90 48/80/91
f 48/80/91 42/55/90 43/59/92 49/81/93
f 49/81/93 43/59/92 44/61/94 50/82/95
f 50/82/95 44/61/94 10/63/48 20/83/47
s 7
f 25/84/49 53/85/96 26/86/50
f 26/86/50 51/87/97 27/88/52
f 26/86/50 53/85/96 52/89/98
s 9
f 54/90/99 32/91/58 27/88/57 51/87/100
f 52/89/101 55/92/102 54/90/99 51/87/100
f 56/93/103 55/92/102 52/89/101 53/85/104
f 56/93/103 53/85/104 25/84/64 31/94/63
s 10
f 54/95/105 55/96/106 56/97/107
f 31/98/70 32/99/71 54/95/105 56/97/107
s 7
f 26/86/50 52/89/98 51/87/97
s 11
f 58/100/108 37/101/109 3/102/110 57/103/111
s 12
f 58/100/112 57/103/113 2/104/114 36/105/115
s 11
f 1/106/116 37/101/109 58/100/108
s 12
f 1/106/117 58/100/112 36/105/115
s off
f 68/107/118 69/108/119 70/109/120
f 67/110/121 59/111/122 66/112/123
s 13
f 69/108/124 66/112/125 59/111/126 70/109/127
s off
f 61/113/128 60/114/129 64/115/130
f 62/116/131 63/117/132 65/118/133
s 13
f 64/115/134 60/114/135 62/116/136
f 64/115/134 62/116/136 65/118/137
s off
f 61/113/138 67/110/139 66/112/140 60/114/141
f 63/117/142 62/116/143 69/108/144 68/107/145
s 13
f 60/114/135 66/112/125 69/108/124 62/116/136
s 14
f 68/119/146 70/120/147 59/121/148 67/122/149
f 64/123/150 63/124/151 61/125/152
f 64/123/150 65/126/153 63/124/151
f 61/125/152 63/124/151 68/119/146 67/122/149
s off
f 80/127/154 81/128/155 82/129/156
f 79/130/157 71/131/158 78/132/159
s 16
f 81/128/160 78/132/161 71/131/162 82/129/163
s off
f 73/133/164 72/134/165 76/135/166
f 74/136/167 75/137/168 77/138/169
s 16
f 76/135/170 72/134/171 74/136/172
f 76/135/170 74/136/172 77/138/173
s off
f 73/133/174 79/130/175 78/132/176 72/134/177
f 75/137/178 74/136/179 81/128/180 80/127/181
s 16
f 72/134/171 78/132/161 81/128/160 74/136/172
s 17
f 80/139/182 82/140/183 71/141/184 79/142/185
f 76/143/186 75/144/187 73/145/188
f 76/143/186 77/146/189 75/144/187
f 73/145/188 75/144/187 80/139/182 79/142/185
s off
f 92/147/190 93/148/191 94/149/192
f 91/150/193 83/151/194 90/152/195
s 19
f 93/148/196 90/152/197 83/151/198 94/149/199
s off
f 85/153/200 84/154/201 88/155/202
f 86/156/203 87/157/204 89/158/205
s 19
f 88/155/206 84/154/207 86/156/208
f 88/155/206 86/156/208 89/158/209
s off
f 85/153/210 91/150/211 90/152/212 84/154/213
f 87/157/214 86/156/215 93/148/216 92/147/217
s 19
f 84/154/207 90/152/197 93/148/196 86/156/208
s 20
f 92/159/218 94/160/219 83/161/220 91/162/221
f 88/163/222 87/164/223 85/165/224
f 88/163/222 89/166/225 87/164/223
f 85/165/224 87/164/223 92/159/218 91/162/221
s off
f 104/167/226 105/168/227 106/169/228
f 103/170/229 95/171/230 102/172/231
s 22
f 105/168/232 102/172/233 95/171/234 106/169/235
s off
f 97/173/236 96/174/237 100/175/238
f 98/176/239 99/177/240 101/178/241
s 22
f 100/175/242 96/174/243 98/176/244
f 100/175/242 98/176/244 101/178/245
s off
f 97/173/246 103/170/247 102/172/248 96/174/249
f 99/177/250 98/176/251 105/168/252 104/167/253
s 22
f 96/174/243 102/172/233 105/168/232 98/176/244
s 23
f 104/179/254 106/180/255 95/181/256 103/182/257
f 100/183/258 99/184/259 97/185/260
f 100/183/258 101/186/261 99/184/259
f 97/185/260 99/184/259 104/179/254 103/182/257
s off
f 111/187/262 112/188/263 113/189/264 114/190/265
f 108/191/266 107/192/267 113/189/268 112/188/269
f 110/193/270 109/194/271 111/187/272 114/190/273
f 112/188/274 111/187/275 109/194/276 108/191/277
f 107/192/278 110/193/279 114/190/280 113/189/281
f 115/199/282 116/200/283 120/201/284 119/202/285
f 116/200/286 117/198/287 121/197/288 120/201/289
f 117/198/290 118/196/291 122/195/292 121/197/293
f 118/196/294 115/199/295 119/202/296 122/195/297
