# This file uses centimeters as units for non-parametric coordinates.

v -0.109715 0.330397 -0.393169
v 0.109708 0.330397 -0.393169
v -0.109715 0.516975 -0.393169
v 0.109708 0.516975 -0.393169
v -0.122671 0.321396 -0.312202
v 0.122664 0.321396 -0.312202
v 0.122664 0.530008 -0.312202
v -0.122671 0.530008 -0.312202
v -0.061870 0.285938 -0.393169
v -0.069176 0.273913 -0.312202
v 0.061863 0.285938 -0.393169
v 0.069168 0.273913 -0.312202
v -0.444330 -0.002129 0.298691
v -0.444332 -0.002129 -0.283180
v 0.444330 -0.002129 -0.283180
v 0.444332 -0.002129 0.298691
v -0.342066 -0.002129 -0.314617
v -0.342062 -0.002129 0.330128
v 0.342065 -0.002129 0.330128
v 0.342062 -0.002129 -0.314617
v -0.444330 0.440425 0.298691
v -0.444332 0.440425 -0.283180
v -0.342066 0.440425 -0.314617
v 0.342062 0.440425 -0.314617
v 0.444330 0.440425 -0.283180
v 0.444332 0.440425 0.298691
v 0.342065 0.440425 0.330128
v -0.342062 0.440425 0.330128
v 0.378385 0.440425 0.255510
v -0.378383 0.440425 0.255510
v 0.378383 0.440425 -0.240000
v -0.378385 0.440425 -0.240000
v 0.378385 0.056993 0.255510
v -0.378383 0.056993 0.255510
v 0.378383 0.056993 -0.240000
v -0.378385 0.056993 -0.240000
v -0.339799 0.484896 0.361456
v -0.339799 0.441885 0.393167
v -0.339799 0.398434 0.362061
v -0.339799 0.414593 0.311123
v -0.339799 0.468029 0.310751
v -0.122690 0.484896 0.361456
v -0.122690 0.441885 0.393167
v -0.122690 0.398434 0.362061
v -0.122690 0.414593 0.311123
v -0.122690 0.468029 0.310751
v 0.121628 0.484896 0.361456
v 0.121628 0.441885 0.393167
v 0.121628 0.398434 0.362061
v 0.121628 0.414593 0.311123
v 0.121628 0.468029 0.310751
v 0.338737 0.484896 0.361456
v 0.338737 0.441885 0.393167
v 0.338737 0.398434 0.362061
v 0.338737 0.414593 0.311123
v 0.338737 0.468029 0.310751
vt 0.771758 0.865215
vt 0.778699 0.874629
vt 0.789796 0.870938
vt 0.778565 0.855707
vt 0.789715 0.859241
vt 0.778565 0.855707
vt 0.789715 0.859241
vt 0.771758 0.865215
vt 0.762853 0.850936
vt 0.762853 0.870812
vt 0.757756 0.875336
vt 0.744574 0.875336
vt 0.739478 0.870812
vt 0.739478 0.850936
vt 0.855325 0.934052
vt 0.865961 0.924167
vt 0.893470 0.924167
vt 0.904108 0.934052
vt 0.904108 0.975533
vt 0.855325 0.975533
vt 0.901475 0.909682
vt 0.918304 0.924619
vt 0.841128 0.990243
vt 0.841128 0.924619
vt 0.918304 0.990243
vt 0.857957 0.909682
vt 0.572301 0.985912
vt 0.721895 0.985912
vt 0.721895 0.812820
vt 0.572301 0.812820
vt 0.572301 0.910402
vt 0.721895 0.910402
vt 0.789796 0.870938
vt 0.778699 0.874629
vt 0.737598 0.854076
vt 0.737599 0.867737
vt 0.793102 0.867738
vt 0.793101 0.854075
vt 0.737598 0.881399
vt 0.793102 0.881399
vt 0.737600 0.826753
vt 0.793102 0.826754
vt 0.737599 0.840416
vt 0.793101 0.840415
vt 0.708981 0.578472
vt 0.572133 0.578143
vt 0.688600 0.578143
vt 0.688600 0.578472
vt 0.866282 0.578317
vt 0.845826 0.578317
vt 0.845826 0.489794
vt 0.866282 0.489794
vt 0.688600 0.578317
vt 0.572133 0.578317
vt 0.572133 0.489794
vt 0.688600 0.489794
vt 0.688600 0.489425
vt 0.708981 0.489425
vt 0.866282 0.578472
vt 0.845826 0.578472
vt 0.589522 0.910402
vt 0.572301 0.910402
vt 0.572301 0.812820
vt 0.589522 0.812820
vt 0.708981 0.578317
vt 0.708981 0.489794
vt 0.721895 0.985912
vt 0.819481 0.985912
vt 0.721895 0.910402
vt 0.705027 0.910402
vt 0.705027 0.812820
vt 0.721895 0.812820
vt 0.845826 0.489425
vt 0.866282 0.489425
vt 0.722186 0.985825
vt 0.572301 0.985825
vt 0.819481 0.910402
vt 0.572301 0.910402
vt 0.721895 0.910402
vt 0.721895 0.910402
vt 0.960924 0.853207
vt 0.825384 0.853207
vt 0.820249 0.838109
vt 0.968077 0.838109
vt 0.807261 0.846614
vt 0.807261 0.733633
vt 0.820249 0.742136
vt 0.827402 0.727442
vt 0.960925 0.727442
vt 0.968078 0.742136
vt 0.981066 0.733633
vt 0.981065 0.846612
vt 0.737599 0.895061
vt 0.793102 0.895061
vt 0.737598 0.854076
vt 0.737599 0.867737
vt 0.793102 0.867738
vt 0.793101 0.854075
vt 0.737598 0.881399
vt 0.793102 0.881399
vt 0.737599 0.895061
vt 0.793102 0.895061
vt 0.737600 0.826753
vt 0.737599 0.840416
vt 0.793101 0.840415
vt 0.793102 0.826754
vt 0.771758 0.865215
vt 0.778699 0.874629
vt 0.789796 0.870938
vt 0.778565 0.855707
vt 0.789715 0.859241
vt 0.778565 0.855707
vt 0.789715 0.859241
vt 0.771758 0.865215
vt 0.789796 0.870938
vt 0.778699 0.874629
vt 0.819481 0.985912
vt 0.721895 0.985912
vt 0.721895 0.910402
vt 0.819481 0.910402
vt 0.688600 0.489794
vt 0.572133 0.489794
vn 0.000000 0.000000 -1.000000
vn 0.000000 0.000000 -1.000000
vn 0.000000 0.000000 -1.000000
vn 0.000000 0.000000 -1.000000
vn 0.000000 0.000000 -1.000000
vn 0.000000 0.000000 -1.000000
vn -0.661277 -0.728867 -0.177384
vn -0.661277 -0.728867 -0.177384
vn -0.661277 -0.728867 -0.177384
vn -0.661277 -0.728867 -0.177384
vn 0.987437 -0.000000 -0.158013
vn 0.987437 -0.000000 -0.158013
vn 0.987437 -0.000000 -0.158013
vn 0.987437 -0.000000 -0.158013
vn -0.987437 0.000000 -0.158013
vn -0.987437 0.000000 -0.158013
vn -0.987437 0.000000 -0.158013
vn -0.987437 0.000000 -0.158013
vn 0.000000 0.987291 -0.158923
vn 0.000000 0.987291 -0.158923
vn 0.000000 0.987291 -0.158923
vn 0.000000 0.987291 -0.158923
vn -0.000000 -0.000000 1.000000
vn -0.000000 -0.000000 1.000000
vn -0.000000 -0.000000 1.000000
vn -0.000000 -0.000000 1.000000
vn -0.000000 -0.000000 1.000000
vn -0.000000 -0.000000 1.000000
vn -0.000000 -0.989151 -0.146904
vn -0.000000 -0.989151 -0.146904
vn -0.000000 -0.989151 -0.146904
vn -0.000000 -0.989151 -0.146904
vn 0.661274 -0.728871 -0.177380
vn 0.661274 -0.728871 -0.177380
vn 0.661274 -0.728871 -0.177380
vn 0.661274 -0.728871 -0.177380
vn -1.000000 0.000000 0.000003
vn -1.000000 0.000000 0.000003
vn -1.000000 0.000000 0.000003
vn -1.000000 0.000000 0.000003
vn -0.293833 0.000000 -0.955857
vn -0.293833 0.000000 -0.955857
vn -0.293833 0.000000 -0.955857
vn -0.293833 0.000000 -0.955857
vn 1.000000 -0.000000 -0.000003
vn 1.000000 -0.000000 -0.000003
vn 1.000000 -0.000000 -0.000003
vn 1.000000 -0.000000 -0.000003
vn -0.293828 0.000000 0.955858
vn -0.293828 0.000000 0.955858
vn -0.293828 0.000000 0.955858
vn -0.293828 0.000000 0.955858
vn -0.000000 -1.000000 -0.000000
vn -0.000000 -1.000000 0.000000
vn -0.000000 -1.000000 0.000000
vn -0.000000 -1.000000 -0.000000
vn 0.293828 -0.000000 -0.955858
vn 0.293828 -0.000000 -0.955858
vn 0.293828 -0.000000 -0.955858
vn 0.293828 -0.000000 -0.955858
vn -0.000000 -1.000000 0.000000
vn -0.000000 -1.000000 -0.000000
vn -0.000000 -1.000000 -0.000000
vn -0.000000 -1.000000 0.000000
vn 0.293830 -0.000000 0.955858
vn 0.293830 -0.000000 0.955858
vn 0.293830 -0.000000 0.955858
vn 0.293830 -0.000000 0.955858
vn 0.000000 0.000000 -1.000000
vn 0.000000 0.000000 -1.000000
vn 0.000000 0.000000 -1.000000
vn 0.000000 0.000000 -1.000000
vn -0.000000 -0.000000 1.000000
vn -0.000000 -0.000000 1.000000
vn -0.000000 -0.000000 1.000000
vn -0.000000 -0.000000 1.000000
vn 0.000000 1.000000 -0.000000
vn 0.000000 1.000000 -0.000000
vn 0.000000 1.000000 -0.000000
vn 0.000000 1.000000 -0.000000
vn 0.000000 1.000000 -0.000000
vn 0.000000 1.000000 0.000000
vn 0.000000 1.000000 0.000000
vn 0.000000 1.000000 -0.000000
vn 0.000000 1.000000 0.000000
vn 0.000000 1.000000 0.000000
vn 0.000000 1.000000 0.000000
vn 0.000000 1.000000 0.000001
vn 0.000000 1.000000 0.000000
vn 0.000000 1.000000 0.000000
vn 0.000000 1.000000 0.000000
vn 0.000000 1.000000 -0.000000
vn 0.000000 0.000000 -1.000000
vn 0.000000 0.000000 -1.000000
vn 0.000000 0.000000 -1.000000
vn 0.000000 0.000000 -1.000000
vn -1.000000 0.000000 0.000004
vn -1.000000 0.000000 0.000004
vn -1.000000 0.000000 0.000004
vn -1.000000 0.000000 0.000004
vn -0.000000 -0.000000 1.000000
vn -0.000000 -0.000000 1.000000
vn -0.000000 -0.000000 1.000000
vn -0.000000 -0.000000 1.000000
vn 1.000000 -0.000000 -0.000004
vn 1.000000 -0.000000 -0.000004
vn 1.000000 -0.000000 -0.000004
vn 1.000000 -0.000000 -0.000004
vn 0.000000 0.953191 0.302368
vn 0.000000 0.006987 0.999976
vn 0.000000 0.006987 0.999976
vn 0.000000 0.953191 0.302368
vn -0.000000 -0.948875 0.315651
vn -0.000000 -0.948875 0.315651
vn -0.000000 -0.593411 -0.804900
vn -0.000000 -0.593411 -0.804900
vn 0.000000 0.582133 -0.813094
vn 0.000000 0.582133 -0.813094
vn -1.000000 -0.000000 -0.000000
vn -1.000000 0.000000 -0.000000
vn -1.000000 -0.000000 -0.000000
vn -1.000000 -0.000000 -0.000000
vn -1.000000 0.000000 -0.000000
vn 1.000000 0.000000 0.000000
vn 1.000000 -0.000000 0.000000
vn 1.000000 -0.000000 0.000000
vn 1.000000 -0.000000 0.000000
vn 1.000000 -0.000000 0.000000
vn 0.000000 0.953191 0.302368
vn 0.000000 0.006987 0.999976
vn 0.000000 0.006987 0.999976
vn 0.000000 0.953191 0.302368
vn -0.000000 -0.948875 0.315652
vn -0.000000 -0.948875 0.315652
vn -0.000000 -0.593411 -0.804900
vn -0.000000 -0.593411 -0.804900
vn 0.000000 0.582133 -0.813094
vn 0.000000 0.582133 -0.813094
vn -1.000000 0.000000 -0.000000
vn -1.000000 0.000000 -0.000000
vn -1.000000 0.000000 -0.000000
vn -1.000000 0.000000 -0.000000
vn -1.000000 0.000000 -0.000000
vn 1.000000 -0.000000 0.000000
vn 1.000000 -0.000000 0.000000
vn 1.000000 -0.000000 0.000000
vn 1.000000 -0.000000 0.000000
vn 1.000000 -0.000000 0.000000
s off
f 2/15/1 11/16/2 9/17/3 1/18/4 3/19/5 4/20/6
f 1/18/7 9/17/8 10/21/9 5/22/10
f 2/15/11 4/20/12 7/23/13 6/24/14
f 3/19/15 1/18/16 5/22/17 8/25/18
f 4/20/19 3/19/20 8/25/21 7/23/22
f 8/14/23 5/13/24 10/12/25 12/11/26 6/10/27 7/9/28
f 12/26/29 10/21/30 9/17/31 11/16/32
f 11/16/33 2/15/34 6/24/35 12/26/36
f 21/46/37 22/47/38 14/121/39 13/122/40
f 22/49/41 23/50/42 17/51/43 14/52/44
f 25/53/45 26/54/46 16/55/47 15/56/48
f 28/45/49 21/48/50 13/57/51 18/58/52
s 1
f 18/61/53 13/62/54 14/63/55 17/64/56
s off
f 24/65/57 25/53/58 15/56/59 20/66/60
s 1
f 16/69/61 19/70/62 20/71/63 15/72/64
s off
f 26/59/65 27/60/66 19/73/67 16/74/68
f 20/66/69 17/51/70 23/50/71 24/65/72
s 1
f 18/61/53 17/64/56 20/71/63 19/70/62
s off
f 27/60/73 28/45/74 18/58/75 19/73/76
f 34/32/77 33/31/78 35/30/79 36/29/80
s 2
f 28/81/81 27/82/82 29/83/83 30/84/84
f 27/82/82 26/85/85 29/83/83
f 26/85/85 25/86/86 31/87/87 29/83/83
f 25/86/86 24/88/88 31/87/87
f 24/88/88 23/89/89 32/90/90 31/87/87
f 23/89/89 22/91/91 32/90/90
f 22/91/91 21/92/92 30/84/84 32/90/90
f 21/92/92 28/81/81 30/84/84
s off
f 30/28/93 29/27/94 33/31/95 34/32/96
f 29/67/97 31/68/98 35/77/99 33/80/100
f 31/75/101 32/76/102 36/78/103 35/79/104
f 32/117/105 30/118/106 34/119/107 36/120/108
s 3
f 37/35/109 38/36/110 43/37/111 42/38/112
f 38/36/110 39/39/113 44/40/114 43/37/111
f 39/39/113 40/93/115 45/94/116 44/40/114
f 40/41/115 41/43/117 46/44/118 45/42/116
f 41/43/117 37/35/109 42/38/112 46/44/118
s 4
f 38/1/119 37/2/120 41/3/121
f 39/4/122 38/1/119 41/3/121
f 40/5/123 39/4/122 41/3/121
s 5
f 44/6/124 45/7/125 43/8/126
f 45/7/125 46/33/127 43/8/126
f 46/33/127 42/34/128 43/8/126
s 6
f 47/95/129 48/96/130 53/97/131 52/98/132
f 48/96/130 49/99/133 54/100/134 53/97/131
f 49/99/133 50/101/135 55/102/136 54/100/134
f 50/103/135 51/104/137 56/105/138 55/106/136
f 51/104/137 47/95/129 52/98/132 56/105/138
s 7
f 48/107/139 47/108/140 51/109/141
f 49/110/142 48/107/139 51/109/141
f 50/111/143 49/110/142 51/109/141
s 8
f 54/112/144 55/113/145 53/114/146
f 55/113/145 56/115/147 53/114/146
f 56/115/147 52/116/148 53/114/146
