# This file uses centimeters as units for non-parametric coordinates.

v -0.109715 0.330397 -0.393169
v 0.109708 0.330397 -0.393169
v -0.109715 0.516975 -0.393169
v 0.109708 0.516975 -0.393169
v -0.122671 0.321396 -0.312202
v 0.122664 0.321396 -0.312202
v 0.122664 0.530008 -0.312202
v -0.122671 0.530008 -0.312202
v -0.061870 0.285938 -0.393169
v -0.069176 0.273913 -0.312202
v 0.061863 0.285938 -0.393169
v 0.069168 0.273913 -0.312202
v -0.444330 -0.002129 0.298691
v -0.444332 -0.002129 -0.283180
v 0.444330 -0.002129 -0.283180
v 0.444332 -0.002129 0.298691
v -0.342066 -0.002129 -0.314617
v -0.342062 -0.002129 0.330128
v 0.342065 -0.002129 0.330128
v 0.342062 -0.002129 -0.314617
v -0.444330 0.440425 0.298691
v -0.444332 0.440425 -0.283180
v -0.342066 0.440425 -0.314617
v 0.342062 0.440425 -0.314617
v 0.444330 0.440425 -0.283180
v 0.444332 0.440425 0.298691
v 0.342065 0.440425 0.330128
v -0.342062 0.440425 0.330128
v 0.378385 0.440425 0.255510
v -0.378383 0.440425 0.255510
v 0.378383 0.440425 -0.240000
v -0.378385 0.440425 -0.240000
v 0.378385 0.056993 0.255510
v -0.378383 0.056993 0.255510
v 0.378383 0.056993 -0.240000
v -0.378385 0.056993 -0.240000
v -0.339799 0.484896 0.361456
v -0.339799 0.441885 0.393167
v -0.339799 0.398434 0.362061
v -0.339799 0.414593 0.311123
v -0.339799 0.468029 0.310751
v -0.122690 0.484896 0.361456
v -0.122690 0.441885 0.393167
v -0.122690 0.398434 0.362061
v -0.122690 0.414593 0.311123
v -0.122690 0.468029 0.310751
v 0.121628 0.484896 0.361456
v 0.121628 0.441885 0.393167
v 0.121628 0.398434 0.362061
v 0.121628 0.414593 0.311123
v 0.121628 0.468029 0.310751
v 0.338737 0.484896 0.361456
v 0.338737 0.441885 0.393167
v 0.338737 0.398434 0.362061
v 0.338737 0.414593 0.311123
v 0.338737 0.468029 0.310751
v 0.378380 0.318390 0.255508
v -0.378380 0.317222 0.255508
v 0.378372 0.329242 -0.239998
v -0.378387 0.276662 -0.239998
v -0.001923 0.390514 0.255508
v -0.001930 0.370784 -0.239998
v 0.378380 0.395432 0.008026
v 0.014992 0.509229 -0.002407
v -0.378380 0.405369 0.007717
v 0.190506 0.316563 0.255508
v 0.170753 0.442328 0.004749
v 0.190506 0.297193 -0.239998
v -0.167969 0.378831 -0.239998
v -0.190514 0.496883 0.000374
v -0.167953 0.377943 0.255508
v -0.378380 0.389646 0.125908
v -0.167961 0.451161 0.162304
v -0.011230 0.477266 0.149036
v 0.158775 0.426825 0.123653
v 0.378380 0.339504 0.144764
v -0.378380 0.331721 -0.114414
v -0.167976 0.455614 -0.122402
v -0.003517 0.475783 -0.139996
v 0.230087 0.365891 -0.118172
v 0.378380 0.381640 -0.133270
vt 0.786437 0.871986
vt 0.786536 0.861391
vt 0.776491 0.858023
vt 0.776332 0.875166
vt 0.770182 0.866537
vt 0.776332 0.875166
vt 0.770182 0.866537
vt 0.786437 0.871986
vt 0.761108 0.850704
vt 0.761108 0.868838
vt 0.756458 0.872966
vt 0.744433 0.872966
vt 0.739783 0.868838
vt 0.739783 0.850704
vt 0.855189 0.933420
vt 0.865924 0.923443
vt 0.893691 0.923443
vt 0.904428 0.933420
vt 0.904428 0.975290
vt 0.855189 0.975290
vt 0.901771 0.908823
vt 0.918757 0.923899
vt 0.840859 0.990138
vt 0.840859 0.923899
vt 0.918757 0.990138
vt 0.857846 0.908823
vt 0.572301 0.985912
vt 0.721895 0.985912
vt 0.721895 0.812820
vt 0.572301 0.812820
vt 0.572301 0.910402
vt 0.721895 0.910402
vt 0.776491 0.858023
vt 0.786536 0.861391
vt 0.738295 0.854076
vt 0.738296 0.867737
vt 0.792405 0.867738
vt 0.792404 0.854075
vt 0.738295 0.881399
vt 0.792405 0.881399
vt 0.738297 0.826753
vt 0.792405 0.826754
vt 0.738296 0.840416
vt 0.792404 0.840415
vt 0.708981 0.578472
vt 0.572133 0.578143
vt 0.688600 0.578143
vt 0.688600 0.578472
vt 0.866282 0.578317
vt 0.845826 0.578317
vt 0.845826 0.489794
vt 0.866282 0.489794
vt 0.688600 0.578317
vt 0.572133 0.578317
vt 0.572133 0.489794
vt 0.688600 0.489794
vt 0.688600 0.489425
vt 0.708981 0.489425
vt 0.866282 0.578472
vt 0.845826 0.578472
vt 0.589522 0.910402
vt 0.572301 0.910402
vt 0.572301 0.812820
vt 0.589522 0.812820
vt 0.708981 0.578317
vt 0.708981 0.489794
vt 0.721895 0.985912
vt 0.819481 0.985912
vt 0.721895 0.910402
vt 0.705027 0.910402
vt 0.705027 0.812820
vt 0.721895 0.812820
vt 0.845826 0.489425
vt 0.866282 0.489425
vt 0.722186 0.985825
vt 0.572301 0.985825
vt 0.819481 0.910402
vt 0.572301 0.910402
vt 0.721895 0.910402
vt 0.721895 0.910402
vt 0.961416 0.853455
vt 0.825570 0.853455
vt 0.819902 0.838760
vt 0.968198 0.838760
vt 0.806914 0.847265
vt 0.806915 0.734156
vt 0.819903 0.742660
vt 0.827055 0.727223
vt 0.961417 0.727223
vt 0.968198 0.742660
vt 0.980816 0.736013
vt 0.980816 0.847264
vt 0.738296 0.895061
vt 0.792405 0.895061
vt 0.738295 0.854076
vt 0.738296 0.867737
vt 0.792405 0.867738
vt 0.792404 0.854075
vt 0.738295 0.881399
vt 0.792405 0.881399
vt 0.738296 0.895061
vt 0.792405 0.895061
vt 0.738297 0.826753
vt 0.738296 0.840416
vt 0.792404 0.840415
vt 0.792405 0.826754
vt 0.786437 0.871986
vt 0.786536 0.861391
vt 0.776491 0.858023
vt 0.776332 0.875166
vt 0.770182 0.866537
vt 0.776332 0.875166
vt 0.770182 0.866537
vt 0.786437 0.871986
vt 0.776491 0.858023
vt 0.786536 0.861391
vt 0.819481 0.985912
vt 0.721895 0.985912
vt 0.721895 0.910402
vt 0.819481 0.910402
vt 0.688600 0.489794
vt 0.572133 0.489794
vt 0.818855 0.690731
vt 0.855997 0.687587
vt 0.862210 0.651699
vt 0.813510 0.652358
vt 0.899121 0.653395
vt 0.896283 0.681572
vt 0.903803 0.595396
vt 0.858200 0.595396
vt 0.857825 0.619094
vt 0.913184 0.624265
vt 0.818853 0.595396
vt 0.818853 0.623263
vt 0.948325 0.654171
vt 0.948325 0.686574
vt 0.948322 0.595396
vt 0.948325 0.620688
vt 0.768988 0.595396
vt 0.768991 0.625156
vt 0.768991 0.682106
vt 0.768991 0.654098
vt 0.768991 0.712818
vt 0.818858 0.712818
vt 0.858203 0.712818
vt 0.903803 0.712818
vt 0.948325 0.712818
vn 0.000000 0.000000 -1.000000
vn 0.000000 0.000000 -1.000000
vn 0.000000 0.000000 -1.000000
vn 0.000000 0.000000 -1.000000
vn 0.000000 0.000000 -1.000000
vn 0.000000 0.000000 -1.000000
vn -0.661277 -0.728867 -0.177384
vn -0.661277 -0.728867 -0.177384
vn -0.661277 -0.728867 -0.177384
vn -0.661277 -0.728867 -0.177384
vn 0.987437 0.000000 -0.158013
vn 0.987437 0.000000 -0.158013
vn 0.987437 0.000000 -0.158013
vn 0.987437 0.000000 -0.158013
vn -0.987437 0.000000 -0.158013
vn -0.987437 0.000000 -0.158013
vn -0.987437 0.000000 -0.158013
vn -0.987437 0.000000 -0.158013
vn 0.000000 0.987291 -0.158923
vn 0.000000 0.987291 -0.158923
vn 0.000000 0.987291 -0.158923
vn 0.000000 0.987291 -0.158923
vn 0.000000 0.000000 1.000000
vn 0.000000 0.000000 1.000000
vn 0.000000 0.000000 1.000000
vn 0.000000 0.000000 1.000000
vn 0.000000 0.000000 1.000000
vn 0.000000 0.000000 1.000000
vn 0.000000 -0.989151 -0.146904
vn 0.000000 -0.989151 -0.146904
vn 0.000000 -0.989151 -0.146904
vn 0.000000 -0.989151 -0.146904
vn 0.661274 -0.728871 -0.177380
vn 0.661274 -0.728871 -0.177380
vn 0.661274 -0.728871 -0.177380
vn 0.661274 -0.728871 -0.177380
vn -1.000000 0.000000 0.000003
vn -1.000000 0.000000 0.000003
vn -1.000000 0.000000 0.000003
vn -1.000000 0.000000 0.000003
vn -0.293833 0.000000 -0.955857
vn -0.293833 0.000000 -0.955857
vn -0.293833 0.000000 -0.955857
vn -0.293833 0.000000 -0.955857
vn 1.000000 0.000000 -0.000003
vn 1.000000 0.000000 -0.000003
vn 1.000000 0.000000 -0.000003
vn 1.000000 0.000000 -0.000003
vn -0.293828 0.000000 0.955858
vn -0.293828 0.000000 0.955858
vn -0.293828 0.000000 0.955858
vn -0.293828 0.000000 0.955858
vn 0.000000 -1.000000 -0.000000
vn 0.000000 -1.000000 0.000000
vn 0.000000 -1.000000 0.000000
vn 0.000000 -1.000000 -0.000000
vn 0.293828 0.000000 -0.955858
vn 0.293828 0.000000 -0.955858
vn 0.293828 0.000000 -0.955858
vn 0.293828 0.000000 -0.955858
vn 0.000000 -1.000000 0.000000
vn 0.000000 -1.000000 -0.000000
vn 0.000000 -1.000000 -0.000000
vn 0.000000 -1.000000 0.000000
vn 0.293830 0.000000 0.955858
vn 0.293830 0.000000 0.955858
vn 0.293830 0.000000 0.955858
vn 0.293830 0.000000 0.955858
vn 0.000000 0.000000 -1.000000
vn 0.000000 0.000000 -1.000000
vn 0.000000 0.000000 -1.000000
vn 0.000000 0.000000 -1.000000
vn 0.000000 0.000000 1.000000
vn 0.000000 0.000000 1.000000
vn 0.000000 0.000000 1.000000
vn 0.000000 0.000000 1.000000
vn 0.000000 1.000000 -0.000000
vn 0.000000 1.000000 -0.000000
vn 0.000000 1.000000 -0.000000
vn 0.000000 1.000000 -0.000000
vn 0.000000 1.000000 -0.000000
vn 0.000000 1.000000 0.000000
vn 0.000000 1.000000 0.000000
vn 0.000000 1.000000 -0.000000
vn 0.000000 1.000000 0.000000
vn 0.000000 1.000000 0.000000
vn 0.000000 1.000000 0.000000
vn 0.000000 1.000000 0.000001
vn 0.000000 1.000000 0.000000
vn 0.000000 1.000000 0.000000
vn 0.000000 1.000000 0.000000
vn 0.000000 1.000000 -0.000000
vn 0.000000 0.000000 -1.000000
vn 0.000000 0.000000 -1.000000
vn 0.000000 0.000000 -1.000000
vn 0.000000 0.000000 -1.000000
vn -1.000000 0.000000 0.000004
vn -1.000000 0.000000 0.000004
vn -1.000000 0.000000 0.000004
vn -1.000000 0.000000 0.000004
vn 0.000000 0.000000 1.000000
vn 0.000000 0.000000 1.000000
vn 0.000000 0.000000 1.000000
vn 0.000000 0.000000 1.000000
vn 1.000000 0.000000 -0.000004
vn 1.000000 0.000000 -0.000004
vn 1.000000 0.000000 -0.000004
vn 1.000000 0.000000 -0.000004
vn 0.000000 0.953191 0.302368
vn 0.000000 0.006987 0.999976
vn 0.000000 0.006987 0.999976
vn 0.000000 0.953191 0.302368
vn 0.000000 -0.948875 0.315651
vn 0.000000 -0.948875 0.315651
vn 0.000000 -0.593411 -0.804900
vn 0.000000 -0.593411 -0.804900
vn 0.000000 0.582133 -0.813094
vn 0.000000 0.582133 -0.813094
vn -1.000000 -0.000000 0.000000
vn -1.000000 0.000000 0.000000
vn -1.000000 -0.000000 0.000000
vn -1.000000 -0.000000 0.000000
vn -1.000000 0.000000 0.000000
vn 1.000000 0.000000 0.000000
vn 1.000000 -0.000000 0.000000
vn 1.000000 -0.000000 0.000000
vn 1.000000 -0.000000 0.000000
vn 1.000000 0.000000 0.000000
vn 0.000000 0.953191 0.302368
vn 0.000000 0.006987 0.999976
vn 0.000000 0.006987 0.999976
vn 0.000000 0.953191 0.302368
vn 0.000000 -0.948875 0.315652
vn 0.000000 -0.948875 0.315652
vn 0.000000 -0.593411 -0.804900
vn 0.000000 -0.593411 -0.804900
vn 0.000000 0.582133 -0.813094
vn 0.000000 0.582133 -0.813094
vn -1.000000 0.000000 0.000000
vn -1.000000 0.000000 0.000000
vn -1.000000 0.000000 0.000000
vn -1.000000 0.000000 0.000000
vn -1.000000 0.000000 0.000000
vn 1.000000 0.000000 0.000000
vn 1.000000 0.000000 0.000000
vn 1.000000 0.000000 0.000000
vn 1.000000 0.000000 0.000000
vn 1.000000 0.000000 0.000000
vn -0.205933 0.886100 0.415232
vn 0.126293 0.893473 0.430994
vn 0.150463 0.988039 -0.033764
vn -0.265869 0.962178 -0.059395
vn 0.288978 0.956765 -0.033062
vn 0.273569 0.882200 0.383254
vn 0.099979 0.829197 -0.549943
vn 0.140910 0.754462 -0.641039
vn 0.154608 0.863697 -0.479712
vn 0.176118 0.884374 -0.432279
vn -0.253799 0.797400 -0.547484
vn -0.267580 0.850731 -0.452391
vn 0.182396 0.983034 -0.019410
vn 0.218754 0.905175 0.364425
vn -0.145670 0.884426 -0.443363
vn -0.036756 0.924731 -0.378842
vn -0.433682 0.792137 -0.429464
vn -0.439564 0.793147 -0.421547
vn -0.325631 0.865106 0.381518
vn -0.428178 0.898308 -0.098522
vn -0.278913 0.803814 0.525444
vn -0.174370 0.796010 0.579623
vn 0.118942 0.782122 0.611668
vn 0.232179 0.823189 0.518124
vn 0.160412 0.876586 0.453723
s off
f 2/15/1 11/16/2 9/17/3 1/18/4 3/19/5 4/20/6
f 1/18/7 9/17/8 10/21/9 5/22/10
f 2/15/11 4/20/12 7/23/13 6/24/14
f 3/19/15 1/18/16 5/22/17 8/25/18
f 4/20/19 3/19/20 8/25/21 7/23/22
f 8/14/23 5/13/24 10/12/25 12/11/26 6/10/27 7/9/28
f 12/26/29 10/21/30 9/17/31 11/16/32
f 11/16/33 2/15/34 6/24/35 12/26/36
f 21/46/37 22/47/38 14/121/39 13/122/40
f 22/49/41 23/50/42 17/51/43 14/52/44
f 25/53/45 26/54/46 16/55/47 15/56/48
f 28/45/49 21/48/50 13/57/51 18/58/52
s 1
f 18/61/53 13/62/54 14/63/55 17/64/56
s off
f 24/65/57 25/53/58 15/56/59 20/66/60
s 1
f 16/69/61 19/70/62 20/71/63 15/72/64
s off
f 26/59/65 27/60/66 19/73/67 16/74/68
f 20/66/69 17/51/70 23/50/71 24/65/72
s 1
f 18/61/53 17/64/56 20/71/63 19/70/62
s off
f 27/60/73 28/45/74 18/58/75 19/73/76
f 34/32/77 33/31/78 35/30/79 36/29/80
s 2
f 28/81/81 27/82/82 29/83/83 30/84/84
f 27/82/82 26/85/85 29/83/83
f 26/85/85 25/86/86 31/87/87 29/83/83
f 25/86/86 24/88/88 31/87/87
f 24/88/88 23/89/89 32/90/90 31/87/87
f 23/89/89 22/91/91 32/90/90
f 22/91/91 21/92/92 30/84/84 32/90/90
f 21/92/92 28/81/81 30/84/84
s off
f 30/28/93 29/27/94 33/31/95 34/32/96
f 29/67/97 31/68/98 35/77/99 33/80/100
f 31/75/101 32/76/102 36/78/103 35/79/104
f 32/117/105 30/118/106 34/119/107 36/120/108
s 3
f 37/35/109 38/36/110 43/37/111 42/38/112
f 38/36/110 39/39/113 44/40/114 43/37/111
f 39/39/113 40/93/115 45/94/116 44/40/114
f 40/41/115 41/43/117 46/44/118 45/42/116
f 41/43/117 37/35/109 42/38/112 46/44/118
s 4
f 38/1/119 37/2/120 41/3/121
f 39/4/122 38/1/119 41/3/121
f 40/5/123 39/4/122 41/3/121
s 5
f 44/6/124 45/7/125 43/8/126
f 45/7/125 46/33/127 43/8/126
f 46/33/127 42/34/128 43/8/126
s 6
f 47/95/129 48/96/130 53/97/131 52/98/132
f 48/96/130 49/99/133 54/100/134 53/97/131
f 49/99/133 50/101/135 55/102/136 54/100/134
f 50/103/135 51/104/137 56/105/138 55/106/136
f 51/104/137 47/95/129 52/98/132 56/105/138
s 7
f 48/107/139 47/108/140 51/109/141
f 49/110/142 48/107/139 51/109/141
f 50/111/143 49/110/142 51/109/141
s 8
f 54/112/144 55/113/145 53/114/146
f 55/113/145 56/115/147 53/114/146
f 56/115/147 52/116/148 53/114/146
s 9
f 73/123/149 74/124/150 64/125/151 70/126/152
f 67/127/153 64/125/151 74/124/150 75/128/154
f 68/129/155 62/130/156 79/131/157 80/132/158
f 79/131/157 62/130/156 69/133/159 78/134/160
f 63/135/161 67/127/153 75/128/154 76/136/162
f 59/137/163 68/129/155 80/132/158 81/138/164
f 78/134/160 69/133/159 60/139/165 77/140/166
f 72/141/167 73/123/149 70/126/152 65/142/168
f 58/143/169 71/144/170 73/123/149 72/141/167
f 71/144/170 61/145/171 74/124/150 73/123/149
f 75/128/154 74/124/150 61/145/171 66/146/172
f 76/136/162 75/128/154 66/146/172 57/147/173
f 70/126/152 78/134/160 77/140/166 65/142/168
f 64/125/151 79/131/157 78/134/160 70/126/152
f 80/132/158 79/131/157 64/125/151 67/127/153
f 81/138/164 80/132/158 67/127/153 63/135/161
