# This file uses centimeters as units for non-parametric coordinates.

v 1.987135 1.987700 0.066873
v 1.913011 1.987700 -0.930422
v 2.932427 1.987700 -0.012909
v 2.868310 1.987700 -1.011041
v 2.938925 2.346822 -0.013452
v 2.773465 2.696587 0.000395
v 2.828919 2.485282 -0.004246
v 2.932167 2.596433 -0.216378
v 1.913080 2.819229 -0.930428
v 2.376987 2.834673 -0.969210
v 2.883962 2.658685 -1.012351
v 2.619770 2.718040 -0.989869
v 2.902994 2.831860 -0.715652
v 2.927292 2.790140 -0.297068
v 1.979485 2.645370 0.067514
v 2.460850 2.777816 0.026773
v 1.931987 2.851137 -0.612885
v 2.127784 2.782548 0.054963
v 1.950055 2.748725 -0.354238
v 2.320171 2.934654 -0.735708
v 2.168659 2.936139 -0.270469
v 2.587219 2.979952 -0.294765
v 2.089100 2.866630 -0.945053
vt 0.879995 0.771236
vt 0.878980 0.835152
vt 0.834072 0.835191
vt 0.834611 0.771283
vt 0.827293 0.557809
vt 0.827295 0.602828
vt 0.808578 0.614445
vt 0.782187 0.611646
vt 0.777103 0.598652
vt 0.764333 0.581906
vt 0.764329 0.557812
vt 0.610363 0.698737
vt 0.610614 0.724063
vt 0.606440 0.733823
vt 0.604333 0.748722
vt 0.592519 0.754450
vt 0.579930 0.754781
vt 0.574333 0.745108
vt 0.574646 0.698740
vt 0.290993 0.285096
vt 0.280327 0.270093
vt 0.287675 0.257585
vt 0.290978 0.304024
vt 0.274626 0.288204
vt 0.573593 0.554220
vt 0.625171 0.554221
vt 0.625159 0.614014
vt 0.600119 0.615126
vt 0.587013 0.606742
vt 0.572751 0.602479
vt 0.591344 0.627602
vt 0.660699 0.627604
vt 0.660700 0.673218
vt 0.631381 0.680381
vt 0.613404 0.687477
vt 0.591349 0.685260
vt 0.363308 0.250893
vt 0.326014 0.241469
vt 0.363354 0.241156
vt 0.275905 0.246406
vt 0.275146 0.273180
vt 0.274838 0.288620
vt 0.301004 0.305523
vt 0.274748 0.305853
vt 0.338028 0.304894
vt 0.363206 0.272762
vt 0.363117 0.293288
vt 0.334951 0.255281
vt 0.295075 0.267623
vt 0.303804 0.244092
vt 0.335802 0.282705
vt 0.615658 0.617423
vt 0.275701 0.256531
vn -0.000000 -1.000000 0.000000
vn -0.000000 -1.000000 0.000000
vn -0.000000 -1.000000 0.000000
vn -0.000000 -1.000000 0.000000
vn 0.997903 -0.018695 -0.061965
vn 0.997903 -0.018695 -0.061965
vn 0.997903 -0.018695 -0.061965
vn 0.997903 -0.018695 -0.061965
vn 0.997903 -0.018695 -0.061965
vn 0.997903 -0.018695 -0.061965
vn 0.997903 -0.018695 -0.061965
vn 0.084142 0.000108 0.996454
vn 0.084142 0.000108 0.996454
vn 0.084142 0.000108 0.996454
vn 0.084142 0.000108 0.996454
vn 0.084142 0.000108 0.996454
vn 0.084142 0.000108 0.996454
vn 0.084142 0.000108 0.996454
vn 0.084142 0.000108 0.996454
vn 0.812130 0.291990 0.505160
vn 0.777384 0.370130 0.508604
vn 0.676218 0.501360 0.539785
vn 0.494126 0.757095 0.427372
vn 0.711905 0.490033 0.503050
vn -0.084066 0.000235 -0.996460
vn -0.084066 0.000235 -0.996460
vn -0.084066 0.000235 -0.996460
vn -0.084032 0.000261 -0.996463
vn -0.084066 0.000235 -0.996460
vn -0.084066 0.000235 -0.996460
vn -0.084066 0.000235 -0.996460
vn -0.997554 -0.006162 0.069626
vn -0.997554 -0.006162 0.069626
vn -0.997554 -0.006162 0.069626
vn -0.997554 -0.006162 0.069626
vn -0.997554 -0.006162 0.069626
vn -0.997554 -0.006162 0.069626
vn -0.288590 0.862043 0.416651
vn -0.623799 0.771589 0.124603
vn -0.651686 0.724927 0.223127
vn 0.259365 0.872647 -0.413785
vn 0.300609 0.919587 -0.252969
vn 0.358055 0.796210 -0.487695
vn 0.256966 0.827221 0.499673
vn -0.347429 0.926465 0.144761
vn -0.121162 0.975074 -0.185877
vn -0.423500 0.892441 -0.155553
vn 0.152581 0.972172 0.177768
vn -0.090437 0.978749 -0.184045
vn -0.191303 0.972117 -0.135618
vn -0.215520 0.971311 -0.100531
s off
f 4/1/1 3/2/2 1/3/3 2/4/4
f 4/5/5 11/6/6 13/7/7 14/8/8 8/9/9 5/10/10 3/11/11
f 3/12/12 5/13/13 7/14/14 6/15/15 16/16/16 18/17/17 15/18/18 1/19/19
s 1
f 8/20/20 7/21/21 5/22/22
f 14/23/23 6/24/24 8/20/20
s off
f 4/25/25 2/26/26 9/27/27 23/52/28 10/28/29 12/29/30 11/30/31
f 2/31/32 1/32/33 15/33/34 19/34/35 17/35/36 9/36/37
s 1
f 8/20/20 6/24/24 7/21/21
f 18/37/38 19/38/39 15/39/40
f 12/42/41 13/43/42 11/44/43
f 14/45/23 16/46/44 6/47/24
f 21/48/45 20/49/46 17/50/47 19/38/39
f 22/51/48 13/43/42 20/49/46
f 22/51/48 14/45/23 13/43/42
f 20/49/46 13/43/42 12/42/41 10/41/49
f 17/50/47 23/53/50 9/40/51
f 18/37/38 21/48/45 19/38/39
f 18/37/38 22/51/48 21/48/45
f 18/37/38 16/46/44 14/45/23 22/51/48
f 22/51/48 20/49/46 21/48/45
f 17/50/47 20/49/46 10/41/49 23/53/50
v 1.857186 2.980400 -0.098247
v -0.002688 2.980400 0.178495
v 1.845162 1.987700 -0.096458
v -0.002688 1.987700 0.178495
v -0.153447 1.987700 -0.810082
v 1.687340 1.987700 -1.083984
v 1.748518 2.980400 -0.728926
v 1.461587 2.980399 -0.795588
v 0.733427 2.980400 -0.942046
v 1.229235 2.980400 -0.912154
v 1.687340 2.538120 -1.083984
v 0.885847 2.816438 -0.964725
v 1.309807 2.692445 -1.027809
v 1.738342 2.759010 -0.787121
v -0.107812 2.980400 -0.510836
v 0.070863 2.980400 -0.843459
v -0.065795 2.980399 -0.692906
v -0.153446 2.763323 -0.810082
v -0.047377 2.796311 -0.825865
vt 0.749946 0.766360
vt 0.613909 0.766360
vt 0.614091 0.697195
vt 0.614051 0.697194
vt 0.749161 0.697193
vt 0.749427 0.697195
vt 0.498685 0.917535
vt 0.597965 0.917535
vt 0.575787 0.689824
vt 0.576459 0.627376
vt 0.459793 0.627376
vt 0.459567 0.689824
vt 0.663262 0.766358
vt 0.597965 0.871997
vt 0.583629 0.864298
vt 0.684463 0.766357
vt 0.546517 0.846359
vt 0.572315 0.853659
vt 0.614278 0.735543
vt 0.673214 0.754933
vt 0.642052 0.746295
vt 0.655167 0.750934
vt 0.276834 0.279526
vt 0.302286 0.297576
vt 0.275303 0.299353
vt 0.318584 0.264526
vt 0.284560 0.247679
vt 0.324779 0.292914
vt 0.356791 0.279684
vt 0.370527 0.294239
vt 0.498685 0.867905
vt 0.708488 0.766357
vt 0.733085 0.766356
vt 0.510783 0.846359
vt 0.502365 0.855527
vt 0.749462 0.751231
vt 0.741691 0.753530
vt 0.306360 0.267407
vt 0.315462 0.290811
vt 0.294081 0.287019
vt 0.317374 0.261967
vt 0.329532 0.299163
vn 0.147176 0.000000 0.989110
vn 0.147176 0.000000 0.989110
vn 0.147176 0.000000 0.989110
vn 0.147176 0.000000 0.989110
vn -0.988571 -0.000000 0.150757
vn -0.988571 -0.000000 0.150757
vn -0.988571 -0.000000 0.150757
vn -0.988571 -0.000000 0.150757
vn -0.988571 -0.000000 0.150757
vn 0.000000 -1.000000 0.000000
vn 0.000000 -1.000000 0.000000
vn 0.000000 -1.000000 0.000000
vn 0.000000 -1.000000 0.000000
vn 0.986582 -0.006828 -0.163123
vn 0.986582 -0.006828 -0.163123
vn 0.986582 -0.006828 -0.163123
vn 0.986582 -0.006828 -0.163123
vn 0.986582 -0.006828 -0.163123
vn 0.986582 -0.006828 -0.163123
vn 0.238465 0.493306 -0.836531
vn 0.235491 0.334089 -0.912649
vn 0.219768 0.238551 -0.945936
vn 0.240945 0.609049 -0.755648
vn 0.221929 0.763622 -0.606325
vn 0.155945 0.312367 -0.937074
vn 0.155945 0.312367 -0.937074
vn 0.059079 0.190464 -0.979915
vn 0.000000 1.000000 0.000000
vn 0.000000 1.000000 0.000000
vn 0.000000 1.000000 0.000000
vn 0.000000 1.000000 0.000000
vn 0.000000 1.000000 0.000000
vn 0.000000 1.000000 0.000000
vn 0.000000 1.000000 0.000000
vn 0.000000 1.000000 0.000000
vn 0.000000 1.000000 0.000000
vn -0.147176 -0.000000 -0.989110
vn -0.147176 -0.000000 -0.989110
vn -0.147176 -0.000000 -0.989110
vn -0.147176 -0.000000 -0.989110
vn -0.147176 -0.000000 -0.989110
vn -0.147176 -0.000000 -0.989110
vn -0.147176 -0.000000 -0.989110
vn -0.147176 -0.000000 -0.989110
vn -0.147176 -0.000000 -0.989110
vn -0.706175 0.459384 -0.538779
vn -0.706175 0.459384 -0.538779
vn -0.684777 0.380428 -0.621574
vn -0.718007 0.532116 -0.448686
vn -0.718007 0.532116 -0.448686
s off
f 27/56/52 26/59/53 24/54/54 25/55/55
f 38/85/56 41/89/57 28/58/58 27/56/59 25/55/60
f 29/62/61 26/63/62 27/64/63 28/65/64
f 29/57/65 34/72/66 37/75/67 30/66/68 24/54/69 26/59/70
s 1
f 37/76/71 31/77/72 30/78/73
f 36/79/74 37/76/71 34/80/75
f 33/81/76 35/82/77 32/83/78
f 37/76/71 36/79/74 35/82/77 33/81/76 31/77/72
s off
f 25/60/79 24/61/80 30/67/81 31/68/82 33/71/83 32/70/84 39/87/85 40/88/86 38/84/87
f 29/57/88 28/58/89 41/89/90 42/90/91 39/86/92 32/69/93 35/73/94 36/74/95 34/72/96
s 2
f 42/91/97 40/92/98 39/93/99
f 41/94/100 38/95/101 40/92/98 42/91/97
v -0.897937 2.980400 -0.006715
v -2.433781 2.980400 -0.158250
v -0.910033 1.987700 -0.007909
v -2.433781 1.987700 -0.158250
v -2.339197 1.987700 -1.153774
v -0.822557 1.987700 -1.004133
v -0.831032 2.980400 -0.891991
v -2.400974 2.980400 -0.503546
v -2.013142 2.980400 -1.073287
v -2.238301 2.980399 -0.858538
v -2.339197 2.544454 -1.153774
v -2.191081 2.712368 -1.139160
v -2.360395 2.770021 -0.930655
v -0.822557 2.839625 -1.004133
v -2.025943 2.910101 -1.122866
v -1.341133 2.924253 -1.055299
vt 0.596960 0.839853
vt 0.498852 0.839851
vt 0.498937 0.770690
vt 0.498446 0.770687
vt 0.597244 0.770688
vt 0.596442 0.770688
vt 0.511721 0.917531
vt 0.597965 0.917535
vt 0.575787 0.689824
vt 0.576459 0.627376
vt 0.475379 0.627379
vt 0.475152 0.689821
vt 0.509912 0.839847
vt 0.597761 0.854368
vt 0.586093 0.626655
vt 0.664961 0.626655
vt 0.664961 0.695221
vt 0.511907 0.892846
vt 0.637606 0.695216
vt 0.596681 0.864406
vt 0.530911 0.849787
vt 0.519379 0.866570
vt 0.586098 0.665110
vt 0.597395 0.809475
vt 0.587812 0.821172
vt 0.295196 0.253701
vt 0.326116 0.294126
vt 0.286676 0.292551
vt 0.308267 0.230813
vt 0.370301 0.308423
vt 0.329803 0.263832
vt 0.603772 0.680688
vt 0.498726 0.830038
vt 0.282978 0.282124
vt 0.577122 0.834947
vt 0.532582 0.835934
vt 0.567806 0.857994
vt 0.529408 0.854423
vt 0.530911 0.849787
vt 0.597761 0.854368
vn -0.098189 0.000000 0.995168
vn -0.098189 0.000000 0.995168
vn -0.098189 0.000000 0.995168
vn -0.098189 0.000000 0.995168
vn 0.000000 -1.000000 -0.000000
vn 0.000000 -1.000000 -0.000000
vn 0.000000 -1.000000 -0.000000
vn 0.000000 -1.000000 -0.000000
vn -0.000000 1.000000 -0.000000
vn -0.000000 1.000000 -0.000000
vn 0.061943 0.925418 -0.373850
vn -0.177091 0.851715 -0.493174
vn -0.000000 1.000000 -0.000000
vn -0.000000 1.000000 -0.000000
vn 0.115432 0.386586 -0.915001
vn 0.115432 0.386586 -0.915001
vn -0.139897 0.473031 -0.869868
vn -0.995517 0.000001 -0.094584
vn -0.995517 0.000001 -0.094584
vn -0.995517 0.000001 -0.094584
vn -0.995517 0.000001 -0.094584
vn -0.995517 0.000001 -0.094584
vn -0.995517 0.000001 -0.094584
vn -0.573485 0.543980 -0.612537
vn -0.643985 0.551809 -0.529897
vn -0.638632 0.557302 -0.530626
vn -0.755110 0.556845 -0.346024
vn -0.565798 0.552365 -0.612181
vn 0.996657 -0.006171 0.081464
vn 0.996657 -0.006171 0.081464
vn 0.996657 -0.006171 0.081464
vn 0.996657 -0.006171 0.081464
vn 0.996657 -0.006171 0.081464
vn 0.098189 -0.000000 -0.995168
vn 0.098189 -0.000000 -0.995168
vn 0.098189 -0.000000 -0.995168
vn 0.098189 -0.000000 -0.995168
s off
f 46/98/102 45/101/103 43/96/104 44/97/105
f 48/104/106 45/105/107 46/106/108 47/107/109
s 1
f 44/102/110 43/103/111 49/109/112 51/116/113 52/117/114 50/113/115
f 56/115/116 58/132/117 57/133/118 51/134/113 49/135/112
s off
f 50/114/119 55/127/120 53/118/121 47/110/122 46/111/123 44/112/124
s 1
f 54/121/125 52/122/126 51/123/113 57/129/118
f 52/122/126 55/126/127 50/125/128
f 53/124/129 55/126/127 54/121/125
f 54/121/125 55/126/127 52/122/126
s off
f 48/99/130 56/128/131 49/108/132 43/96/133 45/101/134
s 1
f 48/99/135 47/100/136 53/119/137 54/120/138 57/130/118 58/131/117 56/128/116
v 0.452838 1.987700 -0.980100
v 0.374197 1.987700 -0.137962
v -1.142217 1.987700 -0.070251
v -1.201128 1.987700 -0.821430
v -0.363655 1.987700 -0.019900
v -0.363655 1.987700 -0.980100
v 0.644643 1.987700 -0.651772
v -0.511450 2.377801 -0.321823
v -1.338994 1.987700 -0.535251
v -0.238743 2.433772 -0.524438
v -0.460623 2.325978 -0.793785
v -1.013293 2.320937 -0.451251
v -0.607425 2.455482 -0.600046
v 0.063292 2.065192 -0.840418
vt 0.278520 0.253018
vt 0.320351 0.243673
vt 0.313053 0.265796
vt 0.292536 0.273127
vt 0.272496 0.279142
vt 0.353638 0.254762
vt 0.322889 0.273431
vt 0.315311 0.285417
vt 0.364290 0.278881
vt 0.356185 0.294107
vt 0.320121 0.301340
vt 0.281313 0.293306
vt 0.310075 0.276542
vt 0.338484 0.290295
vn -0.349047 0.708042 0.613875
vn -0.512834 0.854416 -0.083511
vn -0.715402 0.698710 0.002036
vn 0.138017 0.671211 0.728305
vn 0.296788 0.953861 0.045448
vn -0.017549 0.813938 0.580687
vn -0.161322 0.963190 -0.215037
vn -0.058520 0.680616 -0.730300
vn 0.204904 0.797704 -0.567170
vn 0.002150 0.612980 -0.790095
vn 0.288557 0.821950 0.491053
vn 0.334247 0.926024 -0.175381
vn -0.387928 0.665052 -0.638136
vn 0.079717 0.949236 -0.304297
s 1
f 61/136/139 70/139/140 67/140/141
f 63/137/142 68/142/143 66/138/144
f 70/139/140 71/148/145 69/143/146
f 68/142/143 72/149/147 69/143/146
f 69/143/146 72/149/147 64/146/148
f 68/142/143 60/141/149 65/144/150
f 62/147/151 69/143/146 64/146/148
f 62/147/151 70/139/140 69/143/146
f 67/140/141 70/139/140 62/147/151
f 63/137/142 60/141/149 68/142/143
f 68/142/143 71/148/145 66/138/144
f 70/139/140 66/138/144 71/148/145
f 63/137/142 66/138/144 61/136/139
f 61/136/139 66/138/144 70/139/140
f 69/143/146 71/148/145 68/142/143
f 68/142/143 65/144/150 72/149/147
f 72/149/147 65/144/150 59/145/152
f 72/149/147 59/145/152 64/146/148
v -3.000000 0.000000 -1.000000
v 3.000000 0.000000 -1.000000
v 3.000000 0.000000 -0.000000
v -3.000000 0.000000 -0.000000
v 3.000000 2.000000 -0.999999
v 3.000000 1.987700 -0.000000
v -2.995466 1.987700 -0.000000
v -2.995466 1.987700 -1.000000
v 3.000000 2.000000 -0.999999
v -2.995466 1.987700 -1.000000
v -3.000004 0.000000 -1.267934
v 2.999996 -0.000000 -1.267934
v 2.999996 1.961557 -1.169668
v -3.000004 1.961557 -1.169668
v 2.999996 1.821295 -1.267934
v -3.000004 1.821295 -1.267934
v -3.000004 0.000000 -0.999999
v 2.999996 -0.000000 -0.999999
vt 0.819362 0.554215
vt 0.885009 0.554214
vt 0.515947 0.554214
vt 0.450019 0.554213
vt 0.885194 0.554213
vt 0.449343 0.554213
vt 0.515946 0.697195
vt 0.885194 0.697196
vt 0.450019 0.697196
vt 0.449673 0.697194
vt 0.885006 0.697181
vt 0.819364 0.697183
vt 0.453687 0.846514
vt 0.453687 0.916661
vt 0.874252 0.916661
vt 0.874252 0.846514
vt 0.883724 0.537376
vt 0.883724 0.554567
vt 0.449444 0.554567
vt 0.449444 0.537376
vt 0.449444 0.523101
vt 0.883724 0.523101
vt 0.883724 0.386498
vt 0.449444 0.386499
vt 0.464955 0.386404
vt 0.489197 0.386404
vt 0.489197 0.523297
vt 0.480306 0.533577
vt 0.464955 0.535677
vt 0.464955 0.386404
vt 0.464955 0.535677
vt 0.480306 0.533577
vt 0.489197 0.523297
vt 0.489197 0.386404
vn 1.000000 0.000000 0.000000
vn 1.000000 0.000000 0.000000
vn 1.000000 0.000000 0.000000
vn 1.000000 0.000000 0.000000
vn -0.999997 0.002281 0.000000
vn -0.999997 0.002281 0.000000
vn -0.999997 0.002281 0.000000
vn -0.999997 0.002281 0.000000
vn -0.000000 -0.000000 1.000000
vn -0.000000 -0.000000 1.000000
vn -0.000000 -0.000000 1.000000
vn -0.000000 -0.000000 1.000000
vn -0.001026 0.999981 0.006150
vn -0.001026 0.999981 0.006150
vn -0.001026 0.999981 0.006150
vn -0.001026 0.999981 0.006150
vn -0.000544 0.839805 -0.542888
vn -0.001007 0.982367 -0.186961
vn -0.001007 0.982367 -0.186961
vn -0.000544 0.839805 -0.542888
vn 0.000000 0.300828 -0.953679
vn 0.000000 0.300828 -0.953679
vn 0.000000 0.000000 -1.000000
vn 0.000000 0.000000 -1.000000
vn 1.000000 -0.000001 -0.000007
vn 1.000000 -0.000001 -0.000007
vn 1.000000 -0.000001 -0.000007
vn 1.000000 -0.000001 -0.000007
vn 1.000000 -0.000001 -0.000007
vn -0.999963 0.000739 0.008544
vn -0.999963 0.000739 0.008544
vn -0.999963 0.000739 0.008544
vn -0.999963 0.000739 0.008544
vn -0.999963 0.000739 0.008544
s off
f 74/152/153 77/156/154 78/158/155 75/153/156
f 79/160/157 80/161/158 73/150/159 76/151/160
f 75/154/161 78/157/162 79/159/163 76/155/164
f 79/163/165 78/164/166 77/165/167 80/162/168
s 1
f 86/166/169 82/167/170 81/168/171 85/169/172
f 87/170/173 88/171/174 86/166/169 85/169/172
f 83/172/175 88/171/174 87/170/173 84/173/176
s off
f 90/174/177 84/175/178 87/176/179 85/177/180 81/178/181
f 89/179/182 82/180/183 86/181/184 88/182/185 83/183/186
